<?xml version="1.0" encoding="UTF-8" standalone="no"?>
<!-- Created with Inkscape (http://www.inkscape.org/) -->

<svg
   xmlns:dc="http://purl.org/dc/elements/1.1/"
   xmlns:cc="http://creativecommons.org/ns#"
   xmlns:rdf="http://www.w3.org/1999/02/22-rdf-syntax-ns#"
   xmlns:svg="http://www.w3.org/2000/svg"
   xmlns="http://www.w3.org/2000/svg"
   xmlns:xlink="http://www.w3.org/1999/xlink"
   version="1.1"
   width="295.07678"
   height="491.55154"
   id="svg2">
  <defs
     id="defs4">
    <linearGradient
       id="ERlinearGradient376">
      <stop
         id="stop3537"
         style="stop-color:#aaaaaa;stop-opacity:1"
         offset="0" />
      <stop
         id="stop3539"
         style="stop-color:#777777;stop-opacity:1"
         offset="1" />
    </linearGradient>
    <linearGradient
       x1="339.7515"
       y1="510.84943"
       x2="368.33878"
       y2="510.84943"
       id="ERlinearGradient382"
       xlink:href="#ERlinearGradient376"
       gradientUnits="userSpaceOnUse"
       gradientTransform="matrix(1.1071194,0,0,1.2904384,-35.841742,-147.2028)" />
    <linearGradient
       x1="339.7515"
       y1="510.84943"
       x2="368.33878"
       y2="510.84943"
       id="ERlinearGradient386"
       xlink:href="#ERlinearGradient376"
       gradientUnits="userSpaceOnUse"
       gradientTransform="matrix(1.4115359,0,0,1.2822548,-154.82265,-61.724023)" />
    <linearGradient
       x1="339.7515"
       y1="510.84943"
       x2="368.33878"
       y2="510.84943"
       id="ERlinearGradient390"
       xlink:href="#ERlinearGradient376"
       gradientUnits="userSpaceOnUse"
       gradientTransform="matrix(1.5800346,0,0,1.2702251,-211.89779,-5.7221458)" />
    <linearGradient
       x1="339.7515"
       y1="510.84943"
       x2="368.33878"
       y2="510.84943"
       id="ERlinearGradient394"
       xlink:href="#ERlinearGradient376"
       gradientUnits="userSpaceOnUse"
       gradientTransform="matrix(1.7162832,0,0,1.2584892,-259.59041,41.338857)" />
    <linearGradient
       x1="339.7515"
       y1="510.84943"
       x2="368.33878"
       y2="510.84943"
       id="linearGradient3681"
       xlink:href="#ERlinearGradient376"
       gradientUnits="userSpaceOnUse"
       gradientTransform="matrix(1.1071194,0,0,1.2904384,-35.841742,-147.2028)" />
    <linearGradient
       x1="339.7515"
       y1="510.84943"
       x2="368.33878"
       y2="510.84943"
       id="linearGradient3683"
       xlink:href="#ERlinearGradient376"
       gradientUnits="userSpaceOnUse"
       gradientTransform="matrix(1.4115359,0,0,1.2822548,-154.82265,-61.724023)" />
    <linearGradient
       x1="339.7515"
       y1="510.84943"
       x2="368.33878"
       y2="510.84943"
       id="linearGradient3685"
       xlink:href="#ERlinearGradient376"
       gradientUnits="userSpaceOnUse"
       gradientTransform="matrix(1.5800346,0,0,1.2702251,-211.89779,-5.7221458)" />
    <linearGradient
       x1="339.7515"
       y1="510.84943"
       x2="368.33878"
       y2="510.84943"
       id="linearGradient3687"
       xlink:href="#ERlinearGradient376"
       gradientUnits="userSpaceOnUse"
       gradientTransform="matrix(1.7162832,0,0,1.2584892,-259.59041,41.338857)" />
  </defs>
  <metadata
     id="metadata7">
    <rdf:RDF>
      <cc:Work
         rdf:about="">
        <dc:format>image/svg+xml</dc:format>
        <dc:type
           rdf:resource="http://purl.org/dc/dcmitype/StillImage" />
        <dc:title></dc:title>
      </cc:Work>
    </rdf:RDF>
  </metadata>
  <g
     transform="translate(-456.62754,-810.5988)"
     id="layer1" />
  <g
     transform="translate(-173.31377,-285.7994)"
     id="g3620">
    <path
       d="m 272.92676,304.83298 c 0,11.76641 0,11.76641 9.0818,11.76641 l 0,85.42525 c 0,0 -79.56639,200.51847 -95.70128,306.24409 -1.1104,7.27605 0,22.08087 0,22.08087 0,19.78554 17.23234,34.50135 40.49865,34.50135 l 187.73889,0 c 26.10408,0 40.87297,-14.71581 40.87297,-34.24934 0,0 1.06374,-15.26759 0,-22.78911 C 440.57654,602.8727 367.24768,402.32986 367.24768,402.32986 l 0,-85.73047 c 10.40048,0 10.40048,0 10.40048,-11.76641 z"
       id="path3622"
       style="fill:#d6e6ec;fill-opacity:1;stroke:none" />
    <path
       d="m 240.80285,511.99368 c 0,0 -51.92205,155.22675 -54.49557,196.27505 -0.46055,7.34587 0,22.08087 0,22.08087 0,19.78554 17.23234,34.50135 40.49865,34.50135 l 187.73889,0 c 26.10408,0 40.87297,-14.71581 40.87297,-34.24934 0,0 0.78465,-15.23338 0,-22.78911 -6.35059,-61.15295 -50.70266,-195.81882 -50.70266,-195.81882 z"
       id="path3624"
       style="fill:#69b969;fill-opacity:1;stroke:none" />
    <path
       d="m 272.92676,304.83298 c 0,11.76641 0,11.76641 9.0818,11.76641 l 0,85.42525 c 0,0 -79.56639,200.51847 -95.70128,306.24409 -1.1104,7.27605 0,22.08087 0,22.08087 0,19.78554 17.23234,34.50135 40.49865,34.50135 l 187.73889,0 c 26.10408,0 40.87297,-14.71581 40.87297,-34.24934 0,0 1.06374,-15.26759 0,-22.78911 C 440.57654,602.8727 367.24768,402.32986 367.24768,402.32986 l 0,-85.73047 c 10.40048,0 10.40048,0 10.40048,-11.76641 z"
       id="path3626"
       style="fill:none;stroke:#000000;stroke-width:1px;stroke-linecap:butt;stroke-linejoin:miter;stroke-opacity:1" />
    <rect
       width="104.7214"
       height="6.1335702"
       ry="0"
       x="272.92676"
       y="298.6994"
       id="rect3628"
       style="fill:#d6e6ec;fill-opacity:1;stroke:#000000;stroke-width:1.79999995;stroke-miterlimit:4;stroke-opacity:1;stroke-dasharray:none" />
    <rect
       width="29.435314"
       height="4.2011352"
       ry="0"
       x="341.41083"
       y="509.91632"
       id="rect3630"
       style="fill:url(#linearGradient3681);fill-opacity:1;stroke:#707070;stroke-width:0.60000002;stroke-linecap:round;stroke-linejoin:miter;stroke-miterlimit:4;stroke-opacity:1;stroke-dasharray:none;stroke-dashoffset:0" />
    <rect
       width="37.528923"
       height="4.1744928"
       ry="0"
       x="326.16037"
       y="591.22772"
       transform="matrix(0.99996559,-0.00829607,0.0329568,0.99945678,0,0)"
       id="rect3632"
       style="fill:url(#linearGradient3683);fill-opacity:1;stroke:#707070;stroke-width:0.60000002;stroke-linecap:round;stroke-linejoin:miter;stroke-miterlimit:4;stroke-opacity:1;stroke-dasharray:none;stroke-dashoffset:0" />
    <rect
       width="42.00885"
       height="4.1353288"
       ry="0"
       x="326.50137"
       y="641.10394"
       transform="matrix(0.99998363,-0.00572226,0.03449938,0.99940472,0,0)"
       id="rect3634"
       style="fill:url(#linearGradient3685);fill-opacity:1;stroke:#707070;stroke-width:0.60000002;stroke-linecap:round;stroke-linejoin:miter;stroke-miterlimit:4;stroke-opacity:1;stroke-dasharray:none;stroke-dashoffset:0" />
    <rect
       width="45.631332"
       height="4.0971222"
       ry="0"
       x="325.23566"
       y="682.18878"
       transform="matrix(0.99998638,-0.00521868,0.03782388,0.99928442,0,0)"
       id="rect3636"
       style="fill:url(#linearGradient3687);fill-opacity:1;stroke:#707070;stroke-width:0.60000002;stroke-linecap:round;stroke-linejoin:miter;stroke-miterlimit:4;stroke-opacity:1;stroke-dasharray:none;stroke-dashoffset:0" />
    <rect
       width="69.893227"
       height="51.11594"
       ry="15.647737"
       x="314.23929"
       y="547.14032"
       transform="matrix(0.99128658,0.13172285,-0.13172285,0.99128658,0,0)"
       id="rect3638"
       style="fill:#585858;fill-opacity:1;stroke:none" />
    <text
       x="310.61066"
       y="481.88983"
       transform="matrix(0.93460484,0.1179669,-0.0949635,1.0579845,0,0)"
       id="text3640"
       style="font-size:26.29800034px;font-style:normal;font-weight:bold;line-height:125%;letter-spacing:0px;word-spacing:0px;fill:#5a5a5a;fill-opacity:1;stroke:none;font-family:Bitstream Vera Sans;-inkscape-font-specification:Bitstream Vera Sans Bold">Pyrex</text>
    <text
       x="322.96979"
       y="540.66229"
       transform="matrix(0.98998402,0.14117944,-0.14117944,0.98998402,0,0)"
       id="text3642"
       style="font-size:18px;font-style:normal;font-weight:normal;line-height:125%;letter-spacing:0px;word-spacing:0px;fill:#5a5a5a;fill-opacity:1;stroke:none;font-family:Bitstream Vera Sans;-inkscape-font-specification:Bitstream Vera Sans Bold">50 mm</text>
    <text
       x="-682.25464"
       y="301.17377"
       transform="matrix(-0.06004289,-0.9981958,0.9981958,-0.06004289,0,0)"
       id="text3644"
       style="font-size:10.77000046px;font-style:normal;font-weight:normal;line-height:125%;letter-spacing:0px;word-spacing:0px;fill:#5a5a5a;fill-opacity:1;stroke:none;font-family:Bitstream Vera Sans;-inkscape-font-specification:Bitstream Vera Sans Bold">APPROX. VOL</text>
    <text
       x="375.35226"
       y="517.07501"
       id="text3646"
       style="font-size:14px;font-style:normal;font-weight:normal;line-height:125%;letter-spacing:0px;word-spacing:0px;fill:#5a5a5a;fill-opacity:1;stroke:none;font-family:Bitstream Vera Sans;-inkscape-font-specification:Bitstream Vera Sans Bold">50</text>
    <text
       x="380.24792"
       y="600.80164"
       transform="matrix(0.99989512,-0.01448274,0.01448274,0.99989512,0,0)"
       id="text3648"
       style="font-size:14px;font-style:normal;font-weight:normal;line-height:125%;letter-spacing:0px;word-spacing:0px;fill:#5a5a5a;fill-opacity:1;stroke:none;font-family:Bitstream Vera Sans;-inkscape-font-specification:Bitstream Vera Sans Bold">40</text>
    <text
       x="396.09082"
       y="645.86896"
       id="text3650"
       style="font-size:14px;font-style:normal;font-weight:normal;line-height:125%;letter-spacing:0px;word-spacing:0px;fill:#5a5a5a;fill-opacity:1;stroke:none;font-family:Bitstream Vera Sans;-inkscape-font-specification:Bitstream Vera Sans Bold">30</text>
    <text
       x="402.30695"
       y="686.91119"
       id="text3652"
       style="font-size:14px;font-style:normal;font-weight:normal;line-height:125%;letter-spacing:0px;word-spacing:0px;fill:#5a5a5a;fill-opacity:1;stroke:none;font-family:Bitstream Vera Sans;-inkscape-font-specification:Bitstream Vera Sans Bold">20</text>
  </g>
</svg>
