<?xml version="1.0" encoding="UTF-8" standalone="no"?>
<!-- Created with Inkscape (http://www.inkscape.org/) -->

<svg
   xmlns:dc="http://purl.org/dc/elements/1.1/"
   xmlns:cc="http://creativecommons.org/ns#"
   xmlns:rdf="http://www.w3.org/1999/02/22-rdf-syntax-ns#"
   xmlns:svg="http://www.w3.org/2000/svg"
   xmlns="http://www.w3.org/2000/svg"
   version="1.1"
   width="512"
   height="512"
   id="svg3760">
  <defs
     id="defs3762" />
  <metadata
     id="metadata3765">
    <rdf:RDF>
      <cc:Work
         rdf:about="">
        <dc:format>image/svg+xml</dc:format>
        <dc:type
           rdf:resource="http://purl.org/dc/dcmitype/StillImage" />
        <dc:title></dc:title>
      </cc:Work>
    </rdf:RDF>
  </metadata>
  <g
     transform="translate(-110,-239)"
     id="layer1" />
  <g
     transform="translate(-110,-239)"
     id="g3773">
    <path
       d="m 601,495 a 235,235 0 1 1 -470,0 235,235 0 1 1 470,0 z"
       id="path3775"
       style="fill:#a6b6b7;fill-opacity:1;stroke:none" />
    <path
       d="M 133.89323,458.23797 A 235,235 0 0 1 556.11902,356.87051 L 366,495 z"
       id="path3777"
       style="fill:#008000;fill-opacity:1;stroke:none" />
    <path
       d="m 556.11902,356.87051 a 235,235 0 0 1 33.3793,210.74836 L 366,495 z"
       id="path3779"
       style="fill:#d48000;fill-opacity:1;stroke:none" />
    <path
       d="m 589.49832,567.61887 a 235,235 0 0 1 -57.32815,93.55114 L 366,495 z"
       id="path3781"
       style="fill:#d40000;fill-opacity:1;stroke:none" />
    <path
       d="m 606,495 a 240,240 0 1 1 -480,0 240,240 0 1 1 480,0 z"
       id="path3783"
       style="fill:none;stroke:#000000;stroke-width:3;stroke-miterlimit:4;stroke-dasharray:none" />
    <path
       d="m 586,495 a 220,220 0 1 1 -440,0 220,220 0 1 1 440,0 z"
       id="path3785"
       style="fill:#c6d0d1;fill-opacity:1;stroke:none" />
    <path
       d="m 576,495 a 210,210 0 1 1 -420,0 210,210 0 1 1 420,0 z"
       id="path3787"
       style="fill:#ffffff;fill-opacity:1;stroke:none" />
    <rect
       width="8"
       height="24"
       ry="0"
       x="366"
       y="495"
       transform="matrix(-0.70710678,-0.70710678,0.70710678,-0.70710678,129.11923,1255.1398)"
       id="rect3789"
       style="fill:#2e393a;fill-opacity:1;stroke:none" />
    <rect
       width="4"
       height="12"
       ry="0"
       x="366"
       y="495"
       transform="matrix(-0.52249856,-0.85264016,0.85264016,-0.52249856,-42.831844,1177.1331)"
       id="rect3791"
       style="fill:#2e393a;fill-opacity:1;stroke:none" />
    <rect
       width="4"
       height="12"
       ry="0"
       x="366"
       y="495"
       transform="matrix(-0.30901699,-0.95105652,0.95105652,-0.30901699,-190.77659,1062.8458)"
       id="rect3793"
       style="fill:#2e393a;fill-opacity:1;stroke:none" />
    <rect
       width="4"
       height="12"
       ry="0"
       x="366"
       y="495"
       transform="matrix(-0.0784591,-0.99691733,0.99691733,-0.0784591,-307.95377,917.17924)"
       id="rect3795"
       style="fill:#2e393a;fill-opacity:1;stroke:none" />
    <rect
       width="4"
       height="12"
       ry="0"
       x="366"
       y="495"
       transform="matrix(0.15643447,-0.98768834,0.98768834,0.15643447,-387.88816,748.18301)"
       id="rect3797"
       style="fill:#2e393a;fill-opacity:1;stroke:none" />
    <rect
       width="8"
       height="24"
       ry="0"
       x="366"
       y="495"
       transform="matrix(0.38268343,-0.92387953,0.92387953,0.38268343,-426.92794,567.04361)"
       id="rect3799"
       style="fill:#2e393a;fill-opacity:1;stroke:none" />
    <rect
       width="4"
       height="12"
       ry="0"
       x="366"
       y="495"
       transform="matrix(0.58778525,-0.80901699,0.80901699,0.58778525,-420.66195,378.32965)"
       id="rect3801"
       style="fill:#2e393a;fill-opacity:1;stroke:none" />
    <rect
       width="4"
       height="12"
       ry="0"
       x="366"
       y="495"
       transform="matrix(0.76040597,-0.64944805,0.64944805,0.76040597,-371.69027,197.91068)"
       id="rect3803"
       style="fill:#2e393a;fill-opacity:1;stroke:none" />
    <rect
       width="4"
       height="12"
       ry="0"
       x="366"
       y="495"
       transform="matrix(0.89100652,-0.4539905,0.4539905,0.89100652,-281.9537,33.908904)"
       id="rect3805"
       style="fill:#2e393a;fill-opacity:1;stroke:none" />
    <rect
       width="4"
       height="12"
       ry="0"
       x="366"
       y="495"
       transform="matrix(0.97236992,-0.23344536,0.23344536,0.97236992,-156.41111,-104.6129)"
       id="rect3807"
       style="fill:#2e393a;fill-opacity:1;stroke:none" />
    <rect
       width="8"
       height="24"
       ry="0"
       x="366"
       y="495"
       transform="translate(-4,-210)"
       id="rect3809"
       style="fill:#2e393a;fill-opacity:1;stroke:none" />
    <rect
       width="4"
       height="12"
       ry="0"
       x="366"
       y="495"
       transform="matrix(0.97236992,0.23344536,-0.23344536,0.97236992,172.74685,-276.42869)"
       id="rect3811"
       style="fill:#2e393a;fill-opacity:1;stroke:none" />
    <rect
       width="4"
       height="12"
       ry="0"
       x="366"
       y="495"
       transform="matrix(0.89100652,0.4539905,-0.4539905,0.89100652,358.1729,-300.2281)"
       id="rect3813"
       style="fill:#2e393a;fill-opacity:1;stroke:none" />
    <rect
       width="4"
       height="12"
       ry="0"
       x="366"
       y="495"
       transform="matrix(0.76040597,0.64944805,-0.64944805,0.76040597,544.03148,-280.08309)"
       id="rect3815"
       style="fill:#2e393a;fill-opacity:1;stroke:none" />
    <rect
       width="4"
       height="12"
       ry="0"
       x="366"
       y="495"
       transform="matrix(0.58778525,0.80901699,-0.80901699,0.58778525,720.05201,-217.10686)"
       id="rect3817"
       style="fill:#2e393a;fill-opacity:1;stroke:none" />
    <rect
       width="8"
       height="24"
       ry="0"
       x="366"
       y="495"
       transform="matrix(0.38268343,0.92387953,-0.92387953,0.38268343,875.7422,-116.62725)"
       id="rect3819"
       style="fill:#2e393a;fill-opacity:1;stroke:none" />
    <rect
       width="4"
       height="12"
       ry="0"
       x="366"
       y="495"
       transform="matrix(0.15643447,0.98768834,-0.98768834,0.15643447,1004.7524,21.244393)"
       id="rect3821"
       style="fill:#2e393a;fill-opacity:1;stroke:none" />
    <rect
       width="4"
       height="12"
       ry="0"
       x="366"
       y="495"
       transform="matrix(-0.0784591,0.99691733,-0.99691733,-0.0784591,1097.6997,183.44808)"
       id="rect3823"
       style="fill:#2e393a;fill-opacity:1;stroke:none" />
    <rect
       width="4"
       height="12"
       ry="0"
       x="366"
       y="495"
       transform="matrix(-0.30901699,0.95105652,-0.95105652,-0.30901699,1150.2131,362.86818)"
       id="rect3825"
       style="fill:#2e393a;fill-opacity:1;stroke:none" />
    <rect
       width="4"
       height="12"
       ry="0"
       x="366"
       y="495"
       transform="matrix(-0.52249856,0.85264016,-0.85264016,-0.52249856,1159.3908,549.58991)"
       id="rect3827"
       style="fill:#2e393a;fill-opacity:1;stroke:none" />
    <rect
       width="8"
       height="24"
       ry="0"
       x="366"
       y="495"
       transform="matrix(-0.70710678,0.70710678,-0.70710678,-0.70710678,1126.1398,731.88077)"
       id="rect3829"
       style="fill:#2e393a;fill-opacity:1;stroke:none" />
    <text
       x="366"
       y="380"
       id="text3831"
       style="font-size:36px;font-style:normal;font-weight:bold;text-align:center;line-height:125%;letter-spacing:0px;word-spacing:0px;text-anchor:middle;fill:#000000;fill-opacity:1;stroke:none;display:inline;font-family:Bitstream Vera Sans;-inkscape-font-specification:Bitstream Vera Sans Bold">GAUGE</text>
    <text
       x="366"
       y="660"
       id="text3833"
       style="font-size:36px;font-style:normal;font-weight:normal;text-align:center;line-height:125%;letter-spacing:0px;word-spacing:0px;text-anchor:middle;fill:#000000;fill-opacity:1;stroke:none;display:inline;font-family:Bitstream Vera Sans;-inkscape-font-specification:Bitstream Vera Sans">VALUE</text>
    <text
       x="246"
       y="630"
       id="text3835"
       style="font-size:18px;font-style:normal;font-weight:normal;text-align:start;line-height:125%;letter-spacing:0px;word-spacing:0px;text-anchor:start;fill:#000000;fill-opacity:1;stroke:none;display:inline;font-family:Bitstream Vera Sans;-inkscape-font-specification:Bitstream Vera Sans">0</text>
    <text
       x="486"
       y="630"
       id="text3837"
       style="font-size:18px;font-style:normal;font-weight:normal;text-align:end;line-height:125%;letter-spacing:0px;word-spacing:0px;text-anchor:end;fill:#000000;fill-opacity:1;stroke:none;display:inline;font-family:Bitstream Vera Sans;-inkscape-font-specification:Bitstream Vera Sans">100</text>
    <g
       id="g3839">
      <path
         d="m 242.52797,619.26107 c 0.92327,-6.44041 11.02829,-21.52192 13.95508,-24.45426 20.59591,-20.63501 70.49056,-60.85029 80.54883,-79.98793 20.59591,-20.635 22.43071,-23.18707 43.02661,-43.82207 2.92679,-2.93236 9.35314,-21.65035 20.3268,-11.15672 10.97367,10.49362 -7.03958,18.4832 -9.96638,21.41556 -20.5959,20.63499 -22.4307,23.18706 -43.02661,43.82206 -20.47908,8.93956 -59.95291,59.3529 -80.54882,79.9879 -2.92679,2.93235 -17.5366,13.55327 -24.31551,14.19546 z"
         id="path3841"
         style="fill:#cd3434;fill-opacity:0.6;stroke:#cd3333;stroke-width:2.5;stroke-miterlimit:4;stroke-opacity:1;stroke-dasharray:none" />
      <path
         d="m 385.60401,495 a 19.604008,19.604008 0 1 1 -39.20802,0 19.604008,19.604008 0 1 1 39.20802,0 z"
         id="path3843"
         style="fill:#117ddd;fill-opacity:1;stroke:#5984a7;stroke-width:1.5;stroke-miterlimit:4;stroke-opacity:1;stroke-dasharray:none" />
    </g>
  </g>
</svg>
