<?xml version="1.0" encoding="UTF-8" standalone="no"?>
<!-- Generator: Adobe Illustrator 16.0.4, SVG Export Plug-In . SVG Version: 6.00 Build 0)  -->

<svg
   xmlns:dc="http://purl.org/dc/elements/1.1/"
   xmlns:cc="http://creativecommons.org/ns#"
   xmlns:rdf="http://www.w3.org/1999/02/22-rdf-syntax-ns#"
   xmlns:svg="http://www.w3.org/2000/svg"
   xmlns="http://www.w3.org/2000/svg"
   xmlns:sodipodi="http://sodipodi.sourceforge.net/DTD/sodipodi-0.dtd"
   xmlns:inkscape="http://www.inkscape.org/namespaces/inkscape"
   version="1.1"
   id="Capa_1"
   x="0px"
   y="0px"
   width="64"
   height="64"
   viewBox="0 0 64.000001 64"
   enable-background="new 0 0 12 32"
   xml:space="preserve"
   inkscape:version="0.48.3.1 r9886"
   sodipodi:docname="logo.svg"><metadata
   id="metadata13"><rdf:RDF><cc:Work
       rdf:about=""><dc:format>image/svg+xml</dc:format><dc:type
         rdf:resource="http://purl.org/dc/dcmitype/StillImage" /><dc:title /></cc:Work></rdf:RDF></metadata><defs
   id="defs11" /><sodipodi:namedview
   pagecolor="#ffffff"
   bordercolor="#666666"
   borderopacity="1"
   objecttolerance="10"
   gridtolerance="10"
   guidetolerance="10"
   inkscape:pageopacity="0"
   inkscape:pageshadow="2"
   inkscape:window-width="1920"
   inkscape:window-height="1030"
   id="namedview9"
   showgrid="false"
   fit-margin-top="0"
   fit-margin-left="0"
   fit-margin-right="0"
   fit-margin-bottom="0"
   inkscape:zoom="6.076699"
   inkscape:cx="41.391378"
   inkscape:cy="23.512288"
   inkscape:window-x="0"
   inkscape:window-y="0"
   inkscape:window-maximized="1"
   inkscape:current-layer="Capa_1" />

<g
   id="g3059"
   transform="matrix(0.82760049,0,0,0.82838246,80.054999,17.257805)"><g
     transform="matrix(1.3016989,0,0,1.3016989,-75.142198,3.3038824)"
     id="g3">
	<path
   inkscape:connector-curvature="0"
   id="path5"
   d="M 10,21.527 V 4.006 C 10,1.793 8.205,0 6,0 3.791,0 2,1.787 2,4.006 V 21.527 C 0.772,22.626 0,24.223 0,26 c 0,3.312 2.687,6 6,6 3.312,0 6,-2.688 6,-6 0,-1.777 -0.771,-3.374 -2,-4.473 z M 6,30 C 3.791,30 2,28.209 2,26 2,24.52 2.805,23.227 4,22.535 V 4.005 C 4,2.897 4.896,2 6,2 7.111,2 8,2.897 8,4.005 v 18.53 c 1.195,0.691 2,1.984 2,3.465 0,2.209 -1.791,4 -4,4 z" />
	<path
   inkscape:connector-curvature="0"
   id="path7"
   d="M 6.984,23.166 C 6.995,23.111 7,23.055 7,22.997 V 13.003 C 7,12.449 6.557,12 6,12 5.447,12 5,12.456 5,13.003 v 9.994 c 0,0.058 0.005,0.114 0.014,0.169 C 3.842,23.573 3,24.688 3,26 c 0,1.657 1.343,3 3,3 1.657,0 3,-1.343 3,-3 0,-1.312 -0.842,-2.427 -2.016,-2.834 z" />
</g><g
     transform="matrix(1.2057038,0,0,1.2057038,-36.295936,-1.7502361)"
     id="g3028"><path
       style="fill:#000000"
       d="m -15.582247,18.954418 c 0,-0.391929 0.159461,-0.782898 0.47262,-1.067239 0.804992,-0.729103 1.265124,-1.767523 1.265124,-2.850131 0,-1.10086 -0.446684,-2.112383 -1.2584,-2.848211 -0.590775,-0.534099 -0.635924,-1.444758 -0.0999,-2.035534 0.53506,-0.5898145 1.445719,-0.6349632 2.034573,-0.0999 1.401531,1.269927 2.205562,3.086442 2.205562,4.983648 0,1.894324 -0.805952,3.710838 -2.210365,4.984608 -0.589815,0.53506 -1.500474,0.489911 -2.035534,-0.0999 -0.250719,-0.274735 -0.373677,-0.621516 -0.373677,-0.967335 z"
       id="path3"
       inkscape:connector-curvature="0" /><path
       style="fill:#000000"
       d="m -11.977076,22.15133 c 0,-0.367914 0.140249,-0.735828 0.419787,-1.016326 1.6224713,-1.631117 2.5158391,-3.796333 2.5158391,-6.097956 0,-2.306426 -0.8914466,-4.472603 -2.5100751,-6.1008382 -0.560997,-0.5638784 -0.558115,-1.4764585 0.0058,-2.037455 0.563879,-0.5609966 1.476459,-0.5590754 2.0374554,0.00576 2.1594526,2.1709799 3.3486885,5.0595352 3.3486885,8.1325292 0,3.06819 -1.1911572,5.955785 -3.3544522,8.130608 -0.5609967,0.564839 -1.4735767,0.56676 -2.0384157,0.0058 -0.281459,-0.281459 -0.42459,-0.652254 -0.42459,-1.022089 z"
       id="path5-6"
       inkscape:connector-curvature="0" /><path
       style="fill:#000000"
       d="m -8.377668,25.341517 c 0,-0.358307 0.1335249,-0.717576 0.4005746,-0.997113 2.4111326,-2.515839 3.7386965,-5.82034 3.7386965,-9.307356 0,-3.493741 -1.3256427,-6.8001627 -3.734854,-9.3092776 -0.5504299,-0.5734845 -0.5321783,-1.4860645 0.042267,-2.037455 0.5744451,-0.5513905 1.4870251,-0.5321783 2.037455,0.041306 2.9260199,3.048978 4.5369638,7.0633696 4.5369638,11.3054266 0,4.233411 -1.6128652,8.246842 -4.5398456,11.301583 -0.5504299,0.574445 -1.4630099,0.593658 -2.0374551,0.04323 C -8.2287732,26.098481 -8.3776679,25.72 -8.3776679,25.341519 z"
       id="path7-5"
       inkscape:connector-curvature="0" /></g><path
     sodipodi:nodetypes="ssssssssssssssssssscccccc"
     id="path3-9"
     d="m -25.459454,-20.833137 -65.212,0 c -3.341,0 -6.06,2.718 -6.06,6.059 l 0,65.14 c 0,3.341001 2.719,6.060001 6.06,6.060001 l 65.212,0 c 3.341,0 6.06,-2.719 6.06,-6.060001 l 0,-65.14 c 0,-3.342 -2.719,-6.059 -6.06,-6.059 z m -4.108,6.897 c 1.435,0 2.597,1.163 2.597,2.597 0,1.4350001 -1.162,2.5970001 -2.597,2.5970001 -1.435,0 -2.597,-1.163 -2.597,-2.5970001 0,-1.434 1.162,-2.597 2.597,-2.597 z m -9.306,0 c 1.435,0 2.597,1.163 2.597,2.597 0,1.4350001 -1.162,2.5970001 -2.597,2.5970001 -1.435,0 -2.597,-1.163 -2.597,-2.5970001 0,-1.434 1.162,-2.597 2.597,-2.597 z m 12.549,63.436 -63.482,0 0,-51.7949999 63.481,0 0,51.7949999 z"
     inkscape:connector-curvature="0" /></g></svg>